<?xml version="1.0" ?><!DOCTYPE svg  PUBLIC '-//W3C//DTD SVG 1.1//EN'  'http://www.w3.org/Graphics/SVG/1.1/DTD/svg11.dtd'><svg width="2.33333px" height="2.33333px" viewBox="0 0 2.33333 2.33333" style="shape-rendering:geometricPrecision; text-rendering:geometricPrecision; image-rendering:optimizeQuality; fill-rule:evenodd; clip-rule:evenodd" xml:space="preserve" xmlns="http://www.w3.org/2000/svg" xmlns:xlink="http://www.w3.org/1999/xlink"><defs><style type="text/css">
   <![CDATA[
    .fil0 {fill:black}
   ]]>
  </style></defs><g id="Layer_x0020_1"><path class="fil0" d="M0.332776 1.93807c-0.00924016,0 -0.0195787,-0.00976772 -0.0194409,-0.0208307l0.0124961 -0.506862 0 -0.956787c0,-0.031937 0.0249961,-0.0583228 0.056937,-0.0583228l1.57891 0c0.031937,0 0.0583228,0.0263819 0.0583228,0.0583228l0 0.958177c0,0.0319409 -0.0263819,0.0583268 -0.0583228,0.0583268l-1.29979 -3.93701e-006 -0.312449 0.45826c-0.00277953,0.00555118 -0.00972441,0.00972047 -0.0166654,0.00972047zm0.0499921 -1.50253c-0.00972047,0 -0.0166654,0.00833071 -0.0166654,0.0180512l0 0.958177 -0.0111102 0.438815 0.277736 -0.411043c0.00277559,-0.00416535 0.00972047,-0.0111102 0.0236063,-0.00972047l1.30534 0c0.00972047,0 0.0180512,-0.00833071 0.0180512,-0.0180512l0 -0.958181c0,-0.00972047 -0.00833071,-0.0180512 -0.0180512,-0.0180512l-1.57891 3.93701e-006zm0.284677 1.02344c0,0 0,0 0,0z"/><path class="fil0" d="M1.69089 0.610504l-1.03594 0c-0.0257717,0 -0.0257717,-0.0388819 0,-0.0388819l1.03594 0c0.0257717,0 0.0257717,0.0388819 0,0.0388819z"/><path class="fil0" d="M1.69089 0.763256l-1.03594 0c-0.0257717,0 -0.0257717,-0.038878 0,-0.038878l1.03594 -3.93701e-006c0.0257756,0 0.0257677,0.0388819 0,0.0388819z"/><path class="fil0" d="M1.69089 0.916012l-1.03594 0c-0.0257717,0 -0.0257717,-0.0388819 0,-0.0388819l1.03594 -3.93701e-006c0.0257756,0 0.0257677,0.0388858 0,0.0388858z"/><path class="fil0" d="M0.793811 1.27845c-0.076378,0 -0.137476,-0.0611024 -0.137476,-0.137476 0,-0.076378 0.0624921,-0.13748 0.137476,-0.13748 0.0749882,0 0.137476,0.0611024 0.137476,0.13748 0,0.076374 -0.0610984,0.137476 -0.137476,0.137476zm0 -0.233299c-0.0541575,0 -0.0985945,0.0430472 -0.0985945,0.0972047 0,0.0541575 0.0444331,0.0972087 0.0985945,0.0972087 0.0541575,0 0.0972047,-0.0430512 0.0972047,-0.0972087 0,-0.0541575 -0.0430472,-0.0972047 -0.0972047,-0.0972047z"/><path class="fil0" d="M1.17292 1.27845c-0.076378,0 -0.13748,-0.0611024 -0.13748,-0.137476 0,-0.076378 0.0624921,-0.13748 0.13748,-0.13748 0.0749882,0 0.137476,0.0611024 0.137476,0.13748 0,0.076374 -0.0624882,0.137476 -0.137476,0.137476zm0 -0.233299c-0.0541575,0 -0.0985984,0.0430472 -0.0985984,0.0972047 0,0.0541575 0.044437,0.0972087 0.0985984,0.0972087 0.0541575,0 0.0972047,-0.0430512 0.0972047,-0.0972087 0,-0.0541575 -0.0430472,-0.0972047 -0.0972047,-0.0972047z"/><path class="fil0" d="M1.55202 1.27845c-0.0749882,0 -0.137476,-0.0611024 -0.137476,-0.137476 0,-0.076378 0.0610984,-0.13748 0.137476,-0.13748 0.0749882,0 0.137476,0.0611024 0.137476,0.13748 0,0.076374 -0.0624882,0.137476 -0.137476,0.137476zm0 -0.233299c-0.0541575,0 -0.0972047,0.0430472 -0.0972047,0.0972047 0,0.0541575 0.0430472,0.0972087 0.0972047,0.0972087 0.0527717,0 0.0972047,-0.0430512 0.0972047,-0.0972087 0,-0.0541575 -0.0444331,-0.0972047 -0.0972047,-0.0972047z"/></g></svg>